<svg width="288" height="118" viewBox="0 0 288 118" fill="none" xmlns="http://www.w3.org/2000/svg">
<path d="M160.981 111.651C160.962 112.817 161.408 113.938 162.222 114.771C163.033 115.606 164.146 116.08 165.309 116.091C166.469 116.104 167.593 115.65 168.417 114.833C169.247 114.017 169.715 112.904 169.72 111.741L170.135 74.4347L161.423 74.3346L160.981 111.651ZM168.913 90.8679L168.792 104.968C168.795 105.244 168.679 105.505 168.48 105.694C168.285 105.885 168.021 105.995 167.742 105.995C167.17 105.985 166.714 105.519 166.715 104.944L166.878 90.8031C166.87 90.5267 166.981 90.2601 167.179 90.0662C167.377 89.8724 167.644 89.7705 167.923 89.782C168.202 89.7824 168.468 89.9042 168.657 90.108C168.845 90.3174 168.938 90.592 168.913 90.8679ZM179.342 13.0184C181.793 20.1705 182.991 27.6895 182.891 35.2489L182.875 36.663C182.819 40.2838 181.588 43.786 179.376 46.6473C177.158 49.5084 174.074 51.5724 170.583 52.532C170.128 52.6428 169.814 53.0591 169.823 53.526L169.685 65.4907L162.062 65.4032L162.186 53.441C162.208 52.9716 161.903 52.5483 161.449 52.4298C157.983 51.3872 154.947 49.2475 152.798 46.3336C150.65 43.4196 149.508 39.8873 149.541 36.2662L149.557 34.8521C149.633 27.2953 151.004 19.8112 153.61 12.7145C156.077 19.8559 157.298 27.3643 157.216 34.9203L157.2 36.3344C157.165 38.8809 158.215 41.3237 160.087 43.0551C161.956 44.7837 164.471 45.6413 167.01 45.4107C171.709 44.8818 175.252 40.9006 175.234 36.1712L175.255 35.1024L175.252 35.1052C175.347 27.5624 176.732 20.0931 179.342 13.0184ZM171.95 67.5971C172.157 67.5967 172.358 67.6792 172.503 67.8272C172.647 67.9753 172.725 68.1778 172.72 68.385L172.674 72.4008L160.444 72.2603L158.994 72.2796L159.054 68.2501L159.051 68.2473C159.053 68.0429 159.133 67.8504 159.281 67.7057C159.426 67.5637 159.623 67.4859 159.825 67.491L170.812 67.6172L170.848 67.5817L171.95 67.5971Z" fill="#FFD56D"/>
<path d="M27.8458 93.8885C25.4162 93.8885 23.1051 93.4441 20.9125 92.5552C18.7495 91.6367 17.0162 90.5404 15.7125 89.2663L17.8903 80.3774C18.9273 82.1848 20.394 83.6959 22.2903 84.9107C24.1866 86.0959 26.1273 86.6885 28.1125 86.6885C29.7421 86.6885 31.0162 86.2441 31.9347 85.3552C32.8829 84.4663 33.3569 83.3848 33.3569 82.1107C33.3569 81.0737 33.1051 80.2144 32.6014 79.533C32.1273 78.8515 31.5495 78.2885 30.8681 77.8441C30.2162 77.3996 29.6384 77.0589 29.1347 76.8219L24.4236 74.4663C23.0606 73.7848 21.7569 72.9848 20.5125 72.0663C19.2681 71.1182 18.2458 69.9478 17.4458 68.5552C16.6755 67.1626 16.2903 65.4441 16.2903 63.3996C16.2903 61.1478 16.794 59.1774 17.8014 57.4885C18.8384 55.7996 20.2903 54.4811 22.1569 53.533C24.0236 52.5848 26.2162 52.1107 28.7347 52.1107C31.1051 52.1107 33.2088 52.4959 35.0458 53.2663C36.9125 54.007 38.4236 54.807 39.5792 55.6663L37.5347 64.333C36.3495 62.7922 34.9273 61.5626 33.2681 60.6441C31.6384 59.6959 30.0088 59.2219 28.3792 59.2219C26.9273 59.2219 25.8014 59.5922 25.0014 60.333C24.231 61.0737 23.8458 61.9922 23.8458 63.0885C23.8458 63.77 23.994 64.3774 24.2903 64.9107C24.6162 65.4441 25.0755 65.9182 25.6681 66.333C26.2606 66.7478 26.9569 67.1626 27.7569 67.5774L32.5125 69.933C33.3125 70.3182 34.1866 70.8219 35.1347 71.4441C36.0829 72.0367 37.0014 72.7922 37.8903 73.7107C38.7792 74.6293 39.5051 75.7404 40.0681 77.0441C40.631 78.3182 40.9125 79.8441 40.9125 81.6219C40.9125 83.933 40.3792 86.0219 39.3125 87.8885C38.2458 89.7256 36.7347 91.1922 34.7792 92.2885C32.8532 93.3552 30.5421 93.8885 27.8458 93.8885ZM45.5583 106.333V66.333H52.225V68.9552C53.262 67.9182 54.4769 67.1033 55.8694 66.5107C57.2917 65.9182 58.8472 65.6219 60.5361 65.6219C63.025 65.6219 65.2769 66.2589 67.2917 67.533C69.3065 68.7774 70.9065 70.4663 72.0917 72.5996C73.3065 74.733 73.9139 77.0885 73.9139 79.6663C73.9139 82.2441 73.3065 84.5996 72.0917 86.733C70.9065 88.8367 69.3065 90.5256 67.2917 91.7996C65.2769 93.0737 63.025 93.7107 60.5361 93.7107C59.1139 93.7107 57.7954 93.4885 56.5806 93.0441C55.3657 92.6293 54.2694 92.0515 53.2917 91.3107V106.333H45.5583ZM59.6472 86.9107C60.9509 86.9107 62.1361 86.5848 63.2028 85.933C64.2694 85.2811 65.1139 84.407 65.7361 83.3107C66.388 82.2144 66.7139 80.9996 66.7139 79.6663C66.7139 78.333 66.388 77.1182 65.7361 76.0219C65.1139 74.9256 64.2694 74.0515 63.2028 73.3996C62.1361 72.7478 60.9509 72.4219 59.6472 72.4219C58.3435 72.4219 57.1583 72.7478 56.0917 73.3996C55.025 74.0515 54.1657 74.9256 53.5139 76.0219C52.8917 77.1182 52.5806 78.333 52.5806 79.6663C52.5806 80.9996 52.8917 82.2144 53.5139 83.3107C54.1657 84.407 55.025 85.2811 56.0917 85.933C57.1583 86.5848 58.3435 86.9107 59.6472 86.9107ZM90.4333 93.7107C87.9741 93.7107 85.737 93.0737 83.7222 91.7996C81.7074 90.5256 80.0926 88.8367 78.8778 86.733C77.6926 84.5996 77.1 82.2441 77.1 79.6663C77.1 77.0885 77.6926 74.733 78.8778 72.5996C80.0926 70.4663 81.7074 68.7774 83.7222 67.533C85.737 66.2589 87.9741 65.6219 90.4333 65.6219C92.1519 65.6219 93.7222 65.933 95.1444 66.5552C96.5667 67.1478 97.7815 67.9774 98.7889 69.0441V66.333H105.456V92.9996H98.7889V90.2885C97.7815 91.3552 96.5667 92.1996 95.1444 92.8219C93.7222 93.4144 92.1519 93.7107 90.4333 93.7107ZM91.3667 86.9107C92.6704 86.9107 93.8556 86.5848 94.9222 85.933C95.9889 85.2811 96.8333 84.407 97.4556 83.3107C98.1074 82.2144 98.4333 80.9996 98.4333 79.6663C98.4333 78.333 98.1074 77.1182 97.4556 76.0219C96.8333 74.9256 95.9889 74.0515 94.9222 73.3996C93.8556 72.7478 92.6704 72.4219 91.3667 72.4219C90.063 72.4219 88.8778 72.7478 87.8111 73.3996C86.7444 74.0515 85.8852 74.9256 85.2333 76.0219C84.6111 77.1182 84.3 78.333 84.3 79.6663C84.3 80.9996 84.6111 82.2144 85.2333 83.3107C85.8852 84.407 86.7444 85.2811 87.8111 85.933C88.8778 86.5848 90.063 86.9107 91.3667 86.9107ZM111.308 92.9996V66.333H118.242V70.9107C119.16 69.37 120.316 68.1848 121.708 67.3552C123.131 66.4959 124.79 66.0663 126.686 66.0663L128.375 72.9107C127.812 72.733 127.175 72.6441 126.464 72.6441C124.242 72.6441 122.449 73.37 121.086 74.8219C119.723 76.2441 119.042 78.2885 119.042 80.9552V92.9996H111.308ZM149.479 92.9996L138.857 78.333L147.613 66.333H155.924L147.301 77.6663L158.59 92.9996H149.479ZM131.746 92.9996V50.333H139.479V92.9996H131.746ZM176.142 92.9996V52.9996H188.675C191.342 52.9996 193.46 53.5182 195.031 54.5552C196.631 55.5626 197.771 56.7922 198.453 58.2441C199.134 59.6663 199.475 61.0293 199.475 62.333C199.475 63.4885 199.253 64.5848 198.808 65.6219C198.364 66.6293 197.742 67.5182 196.942 68.2885C198.779 69.4441 200.26 70.9848 201.386 72.9107C202.512 74.807 203.075 76.9256 203.075 79.2663C203.075 81.5478 202.512 83.7404 201.386 85.8441C200.26 87.9478 198.586 89.6663 196.364 90.9996C194.142 92.333 191.401 92.9996 188.142 92.9996H176.142ZM183.875 85.7996H187.342C189.119 85.7996 190.542 85.4589 191.608 84.7774C192.705 84.0663 193.49 83.1922 193.964 82.1552C194.468 81.0885 194.719 80.0367 194.719 78.9996C194.719 77.9922 194.482 76.97 194.008 75.933C193.534 74.8663 192.749 73.9774 191.653 73.2663C190.586 72.5552 189.149 72.1996 187.342 72.1996H183.875V85.7996ZM183.875 66.5996H187.342C188.734 66.5996 189.86 66.2737 190.719 65.6219C191.579 64.97 192.008 64.0219 192.008 62.7774C192.008 61.4737 191.579 60.4959 190.719 59.8441C189.89 59.1922 188.823 58.8663 187.519 58.8663H183.875V66.5996ZM208.21 92.9996V66.333H215.943V92.9996H208.21ZM212.076 62.4663C210.921 62.4663 209.943 62.0663 209.143 61.2663C208.343 60.4663 207.943 59.4885 207.943 58.333C207.943 57.1478 208.343 56.17 209.143 55.3996C209.943 54.5996 210.921 54.1996 212.076 54.1996C213.262 54.1996 214.239 54.5996 215.01 55.3996C215.81 56.17 216.21 57.1478 216.21 58.333C216.21 59.4885 215.81 60.4663 215.01 61.2663C214.239 62.0663 213.262 62.4663 212.076 62.4663ZM224.982 92.9996V72.4663H220.004V66.333H225.115V57.4441H232.582V66.333H237.871V72.4663H232.715V92.9996H224.982ZM254.381 93.8885C251.388 93.8885 248.751 93.2663 246.469 92.0219C244.188 90.7774 242.41 89.0737 241.136 86.9107C239.862 84.7182 239.225 82.2144 239.225 79.3996C239.225 76.7033 239.847 74.3182 241.092 72.2441C242.336 70.1404 244.01 68.4811 246.114 67.2663C248.247 66.0515 250.603 65.4441 253.181 65.4441C255.818 65.4441 258.173 66.0515 260.247 67.2663C262.321 68.4515 263.951 70.0811 265.136 72.1552C266.351 74.2293 266.958 76.5848 266.958 79.2219V81.933H250.692C249.951 81.933 249.24 81.8885 248.558 81.7996C247.877 81.7107 247.195 81.607 246.514 81.4885C246.869 83.2663 247.744 84.7182 249.136 85.8441C250.558 86.9404 252.366 87.4885 254.558 87.4885C256.247 87.4885 257.758 87.1478 259.092 86.4663C260.455 85.7848 261.566 84.9404 262.425 83.933L264.114 90.8663C262.781 91.8737 261.269 92.6293 259.581 93.133C257.921 93.6367 256.188 93.8885 254.381 93.8885ZM246.336 76.8219C247.818 76.4959 249.269 76.333 250.692 76.333H255.403C256.232 76.333 257.018 76.3626 257.758 76.4219C258.499 76.4811 259.195 76.5848 259.847 76.733C259.403 75.133 258.588 73.8737 257.403 72.9552C256.247 72.0367 254.81 71.5774 253.092 71.5774C251.462 71.5774 250.04 72.0515 248.825 72.9996C247.64 73.9182 246.81 75.1922 246.336 76.8219Z" fill="#FFD56D"/>
</svg>
